<svg xmlns="http://www.w3.org/2000/svg" version="1.1" xmlns:xlink="http://www.w3.org/1999/xlink" xmlns:svgjs="http://svgjs.dev/svgjs" viewBox="0 0 37.44848913976532 9.499599824044893"><g transform="matrix(0.7082942079660589,0,0,0.7082942079660589,10.484661283403637,2.8050667575940866)"><g clip-path="url(#SvgjsClipPath28240)"><g clip-path="url(#SvgjsClipPath28238ddb766e3-6376-4a31-8d28-6538581df03a)"><path d=" M -1.8349702578640552 4.344813207591981 C -1.8865090807004834 4.344800343599609 -1.9350120110342437 4.369184954065445 -1.9657437883866717 4.410558959015509 L -2.902697671778125 3.9783909034413565 L -1.974179963198817 3.5501716956516116 C -2.0471226664328146 3.5642281268303577 -2.1211657646382633 3.5718049092750688 -2.1954436484693387 3.572813465740135 L -2.988854350710673 3.9386972906474322 L -3.7822137692145477 3.5726596145277547 C -3.8564908925431363 3.571659511464787 -3.9305339839534286 3.564091310442203 -4.003477454485069 3.550043486307961 L -3.0749341040370304 3.9782626940977055 L -4.011759778084835 4.41055895901551 C -4.061450531775724 4.344376082026224 -4.152930729939981 4.326086992074159 -4.224247936736415 4.368077469848318 C -4.295565143532849 4.410067947622476 -4.323953984273286 4.498934089593762 -4.290188901188168 4.574493757229362 C -4.256423818103049 4.650053424864963 -4.171283062365391 4.688186995113067 -4.092425857644965 4.663069561473696 C -4.013568652924539 4.637952127834326 -3.966167238754597 4.557601499945452 -3.982322912782881 4.4764329197826855 L -2.988854350710673 4.01811015810401 L -1.9953345049010052 4.4764329197826855 C -2.0087417942640693 4.544114397420981 -1.978182334436092 4.61292174335563 -1.9189788264400276 4.648354531339754 C -1.8597753184439627 4.683787319323877 -1.7846942403641748 4.678204922533515 -1.7313817063130754 4.634406389037309 C -1.678069172261976 4.590607855541104 -1.6580213472578689 4.518037778014943 -1.6812903340024268 4.453083239457198 C -1.7045593207469842 4.388128700899454 -1.7661274603315582 4.344796315462661 -1.835124109076435 4.344813207591981 Z" fill="#d2d4d0" transform="matrix(1,0,0,1,0,0)" fill-rule="nonzero"></path></g><g clip-path="url(#SvgjsClipPath28238ddb766e3-6376-4a31-8d28-6538581df03a)"><path d=" M -1.8349702578640552 3.7755380799189204 C -2.239595866120104 3.7755380799189204 -2.5676097312154678 4.103551945014284 -2.5676097312154678 4.5081775532703325 C -2.5676097312154678 4.912803161526382 -2.2395958661201045 5.240817026621746 -1.8349702578640552 5.240817026621746 C -1.430344649608006 5.240817026621746 -1.1023307845126427 4.912803161526382 -1.1023307845126427 4.5081775532703325 C -1.1027265674058269 4.10371599709095 -1.4305087016849423 3.7759338628119563 -1.8349702578641898 3.7755380799189195 Z M -1.3492876222505488 4.955064041495464 L -1.7018120335495555 4.602513988327726 C -1.7123299318784606 4.617301089019454 -1.7252224786319608 4.630245621848575 -1.7399671342196834 4.640822940210234 L -1.387494006658136 4.993321709640512 C -1.502392547251548 5.099674496298067 -1.6514543906619843 5.161563118932701 -1.8078924444852542 5.167865910085109 L -1.8078924444852542 4.669105921419342 C -1.8257896024024807 4.672353936281773 -1.8441252714568992 4.672353936281773 -1.8620224293741257 4.669105921419342 L -1.8620224293741257 5.16796847756003 C -2.0184530274503008 5.161666352506592 -2.1675070144534994 5.099777216875827 -2.2823952253325137 4.993424277115431 L -1.9298708140335066 4.640951149553885 C -1.9446447524631227 4.6303825716742155 -1.9575639801089149 4.617437349606601 -1.9681028403098249 4.602642197671377 L -2.3206272516088315 4.955166608970384 C -2.426821125191984 4.84021250803678 -2.4885605318281505 4.6911687983631944 -2.4947611821537503 4.534793813011996 L -1.9960011934879827 4.534793813011996 C -1.997481565516753 4.525997384271707 -1.9982618161123442 4.51709738297255 -1.9983346035424057 4.5081775532703325 C -1.9982642737623415 4.498950058816736 -1.9974064310048782 4.4897454060291535 -1.9957704166694135 4.480663828123125 L -2.494838107759941 4.480663828123125 C -2.4884485009505752 4.324376315329039 -2.426585590072851 4.175478061505932 -2.3203451910528017 4.060675660195684 L -1.9678720634912557 4.413174429625961 C -1.957245232324504 4.398420074059232 -1.9442484947284586 4.385527310363955 -1.9294092603963682 4.375019328955833 L -2.2819849554328355 4.022469275788096 C -2.1671398740129146 3.9163802077364984 -2.0182679258261653 3.854657027166917 -1.8620480712428562 3.848360987111906 L -1.8620480712428562 4.3472235432525945 C -1.8441478462939087 4.34400978490673 -1.8258183113029327 4.34400978490673 -1.8079180863539852 4.3472235432525945 L -1.8079180863539852 3.848360987111907 C -1.6516919731313773 3.854650712844297 -1.5028151814948578 3.916384992138649 -1.3879812021640054 4.022494917656826 L -1.7406081809379317 4.375019328955834 C -1.7258263126409554 4.3855535867973865 -1.7128829812639328 4.398453600465651 -1.702299229055423 4.413200071494691 L -1.3498004596251474 4.060726943933145 C -1.2436160711672382 4.17553350649166 -1.181799979292891 4.324410291289627 -1.175435752261658 4.480663828123125 L -1.6741957409274262 4.480663828123125 C -1.6708979607070042 4.4985518567684055 -1.6708458466269551 4.516887327265886 -1.6740418897150464 4.534793813011995 L -1.1752819010492783 4.534793813011995 C -1.1814713981144185 4.691171247486509 -1.243212339918614 4.840218663174622 -1.3494158315941975 4.955166608970382 Z" fill="#000000" transform="matrix(1,0,0,1,0,0)" fill-rule="nonzero"></path></g><g clip-path="url(#SvgjsClipPath28238ddb766e3-6376-4a31-8d28-6538581df03a)"><path d=" M -4.1425589504761815 3.7755380799189204 C -4.438888622523243 3.7755173372566797 -4.706051299080193 3.954006062403275 -4.8194661281708315 4.227773028102423 C -4.93288095726147 4.501539993801571 -4.870212092902932 4.816669703904477 -4.660682705841912 5.026213758755981 C -4.451153318780891 5.235757813607486 -4.13602799633638 5.298448737223052 -3.8622530921508664 5.185053072385323 C -3.588478187965354 5.071657407547595 -3.4099707615882076 4.804507226043374 -3.4099707608622287 4.508177553270333 C -3.4103664955207815 4.103735996084 -3.738117421982756 3.7759621259100573 -4.142558950476259 3.7755380799189204 Z M -3.656927598600135 4.955192250839112 L -4.009400726161682 4.602667839540106 C -4.019931169823241 4.617454222560058 -4.032841938351153 4.630390985923932 -4.0476071105692695 4.640951149553884 L -3.695159624876453 4.993475560852891 C -3.8100722778805807 5.099749799107288 -3.9591103401514705 5.161572456549004 -4.115506778966111 5.167840268216381 L -4.115506778966111 4.669105921419342 C -4.1334039368833375 4.672353936281773 -4.151739605937755 4.672353936281773 -4.169636763854982 4.669105921419342 L -4.169636763854982 5.16796847756003 C -4.326123291048135 5.161691041091906 -4.475236701523722 5.099790791182285 -4.590163411025749 4.993398635246702 L -4.237613357858013 4.640899865816425 C -4.252362313705634 4.630327603887713 -4.265255633896042 4.617382294502987 -4.275768458528141 4.602590913933916 L -4.628267227958418 4.955140967101654 C -4.734453836541348 4.840194689678911 -4.796184799736088 4.691158507108755 -4.802375516634608 4.534793813011995 L -4.303589886100109 4.534793813011995 C -4.305104231505011 4.526001356161876 -4.305893239043435 4.517099292847917 -4.3059489380232625 4.5081775532703325 C -4.305865847216296 4.4989507053422 -4.30500810475442 4.489747128726268 -4.30338475115027 4.480663828123126 L -4.802324232897147 4.480663828123126 C -4.795966028768975 4.324401359353355 -4.734149526777287 4.175514496173963 -4.627959525533659 4.060701302064415 L -4.275486397972112 4.413225713363421 C -4.264909826469515 4.398473136609781 -4.251965396004843 4.3855720275322065 -4.237177446089604 4.375044970824564 L -4.589599289913691 4.022494917656826 C -4.474753761000587 3.9163870582493914 -4.325869847489372 3.8546535952713326 -4.169636763854982 3.848360987111907 L -4.169636763854982 4.3472235432525945 C -4.151736538906035 4.34400978490673 -4.1334070039150586 4.34400978490673 -4.115506778966111 4.3472235432525945 L -4.115506778966111 3.848360987111907 C -3.9592922011716976 3.854658884519869 -3.8104236162083627 3.9163715805762944 -3.695569894776132 4.022443633919367 L -4.048119947943868 4.374993687087104 C -4.0333264928920345 4.385514222001557 -4.020381064262394 4.398416325903521 -4.00981099606136 4.413174429625963 L -3.657312226631084 4.0606756601956855 C -3.5510548050870074 4.175469403173745 -3.4891814033482094 4.324371026312118 -3.4827936680552156 4.4806638281231255 L -3.981681866064633 4.4806638281231255 C -3.9800458517291677 4.489745406029154 -3.9791880089717044 4.498950058816736 -3.9791176791916403 4.508177553270334 C -3.979160666919063 4.517099890280386 -3.9799497675328297 4.526003003727012 -3.981476731114794 4.534793813011997 L -3.4827936680552156 4.534793813011997 C -3.4889659750898443 4.691182626617603 -3.550708863441761 4.840243833292566 -3.6569275986001326 4.9551922508391115 Z" fill="#000000" transform="matrix(1,0,0,1,0,0)" fill-rule="nonzero"></path></g><g clip-path="url(#SvgjsClipPath28238ddb766e3-6376-4a31-8d28-6538581df03a)"><path d=" M -0.8426299380159632 1.9244515763056458 C -0.8426299380159632 1.890808778478387 -0.8559944874158774 1.858543902062108 -0.8797835378976213 1.834754851580365 C -0.9035725883793635 1.8109658010986223 -0.9358374647956422 1.7976012516987077 -0.9694802626229011 1.7976012516987077 L -5.008228438798445 1.7976012516987077 C -5.076447879892128 1.797241588562202 -5.132667705938146 1.851034359041153 -5.135316990520257 1.9192032873876461 C -5.137966275102368 1.9873722157341387 -5.086090866146048 2.0453659476545814 -5.0180492745220056 2.0503018680321174 L -5.0180492745220056 2.3193363547464885 C -5.0180492745220056 3.0118392332191473 -4.456664772101339 3.573223735639813 -3.764161893628681 3.5732237356398135 L -2.2133929565802855 3.5732237356398135 C -1.880841346765659 3.5732237356398135 -1.5619101851008024 3.441118123014824 -1.3267606867063764 3.2059686246203984 C -1.0916111883119513 2.9708191262259724 -0.9595055756869613 2.6518879645611153 -0.9595055756869613 2.3193363547464885 L -0.9595055756869613 2.050301868032117 C -0.8936728667888199 2.0452829882772767 -0.8427735057350052 1.9904751637814173 -0.8426299380159632 1.9244515763056458 Z" fill="#ff8080" transform="matrix(1,0,0,1,0,0)" fill-rule="nonzero"></path></g><g clip-path="url(#SvgjsClipPath28238ddb766e3-6376-4a31-8d28-6538581df03a)"><path d=" M -0.9596850687680698 2.3193363547464885 L -0.9596850687680698 2.287540437521382 L -5.0180492745220056 2.287540437521382 L -5.0180492745220056 2.3193363547464885 C -5.0180492745220056 2.3398498497304283 -5.017408227803758 2.3601838516332587 -5.01648512052948 2.3804152860611696 L -0.9612235808918657 2.3804152860611696 C -0.9602150007218215 2.3601923989228357 -0.9597021633472229 2.3398327551512756 -0.9596850687680698 2.3193363547464885 Z" fill="#7ebeed" transform="matrix(1,0,0,1,0,0)" fill-rule="nonzero"></path></g><g clip-path="url(#SvgjsClipPath28238ddb766e3-6376-4a31-8d28-6538581df03a)"><path d=" M -4.9885354836138625 2.589370874341327 L -0.9891732178074841 2.589370874341327 C -0.9824550482002437 2.5588057668152566 -0.97686512081712 2.5278474839686607 -0.972403435658113 2.496496025801539 L -5.005305265763233 2.496496025801539 C -5.000894864341686 2.5278474839686607 -4.995304936958562 2.5588057668152566 -4.9885354836138625 2.589370874341327 Z" fill="#7ebeed" transform="matrix(1,0,0,1,0,0)" fill-rule="nonzero"></path></g><g clip-path="url(#SvgjsClipPath28238ddb766e3-6376-4a31-8d28-6538581df03a)"><path d=" M -1.1004589280953576 1.3514070939292855 C -1.1844529206464918 1.3515201554544194 -1.2525073831514129 1.4195975589546226 -1.2525921352700018 1.5035915848413894 L -1.2525921352700018 1.7976012516987077 L -1.1804359166639933 1.7976012516987077 L -1.1804359166639933 1.5035915848413894 C -1.1804076458746104 1.459429077670326 -1.1446214239347015 1.423631382110052 -1.1004589280953496 1.4235889544040239 L -0.8275525192027677 1.4235889544040239 L -0.8275525192027677 1.3514070939292855 Z" fill="#d2d4d0" transform="matrix(1,0,0,1,0,0)" fill-rule="nonzero"></path></g><g clip-path="url(#SvgjsClipPath28238ddb766e3-6376-4a31-8d28-6538581df03a)"><path d=" M -3.0502666263188427 1.7976012516987077 C -2.9799067658433858 1.7642981881666153 -2.9344591884854663 1.6940397453658935 -2.9329321808887934 1.616211265652179 C -2.93140517329212 1.5383827859384647 -2.97406187038321 1.466395722755103 -3.0430612612057337 1.4303584077487237 C -2.975320723011819 1.3949997118993647 -2.9328481179078056 1.324919741375899 -2.9328481179078056 1.248506274716097 C -2.9328481179078056 1.172092808056295 -2.975320723011819 1.102012837532829 -3.0430612612057337 1.06665414168347 C -2.9752935108560625 1.0313045388625925 -2.9327989767792135 0.96120975220399 -2.9327989767792135 0.884776366782113 C -2.9327989767792135 0.808342981360236 -2.9752935108560625 0.7382481947016332 -3.0430612612057337 0.7028985918807561 C -2.9752935108560625 0.667548989059879 -2.9327989767792135 0.5974542024012761 -2.9327989767792135 0.5210208169793992 C -2.9327989767792135 0.4445874315575224 -2.9752935108560625 0.3744926448989194 -3.0430612612057337 0.3391430420780423 C -2.9591672591770766 0.2954971280262203 -2.9159820299023704 0.20015515297840267 -2.9385042872465093 0.10830790307984708 C -2.9610265445906467 0.016460653181291557 -3.0434191980210463 -0.04808783165162898 -3.1379874592439156 -0.047972250137632975 L -3.1379874592439156 1.7976012516987077 Z" fill="#ff8080" transform="matrix(1,0,0,1,0,0)" fill-rule="nonzero"></path></g><g clip-path="url(#SvgjsClipPath28238ddb766e3-6376-4a31-8d28-6538581df03a)"><path d=" M -3.1354745561083837 1.7976012516987077 L -3.1354745561083837 -0.047972250137632955 L -3.1354745561083837 -0.047972250137632955 C -4.158607021152174 -0.0479160554386617 -4.991646107000737 0.7745529185524259 -5.004766786519904 1.7976012516987072 Z" fill="#7ebeed" transform="matrix(1,0,0,1,0,0)" fill-rule="nonzero"></path></g><g clip-path="url(#SvgjsClipPath28238ddb766e3-6376-4a31-8d28-6538581df03a)"><path d=" M -0.4957723797062705 1.2917128235260207 L -0.7736276692637354 1.2917128235260207 C -0.7747269746340777 1.277474589093758 -0.7867326442259088 1.2665601485532096 -0.8010109157476446 1.2668185172759843 C -0.8152891872693804 1.2670768859987585 -0.8268921277131023 1.2784185299589976 -0.8274755935965779 1.2926872145377577 L -0.8274755935965779 1.4824370431392015 C -0.8268833452148412 1.4967038674515878 -0.8152756608786502 1.5080377174338804 -0.8009987648902692 1.5082892627441518 C -0.7867218689018891 1.5085408080544231 -0.7747221297528863 1.4976228983906792 -0.7736276692637354 1.4833857922822087 L -0.49577237970626964 1.4833857922822087 C -0.46155620367923156 1.4833857926957086 -0.42993915302576546 1.465131680318062 -0.41283106490907606 1.4354996027178535 C -0.39572297679238666 1.4058675251176453 -0.3957229768223174 1.3693592998701805 -0.41283106498759636 1.3397272222980245 C -0.42993915315287445 1.3100951447258684 -0.46155620383627216 1.291841032400065 -0.49577237986330935 1.2918410328696701 Z" fill="#000000" transform="matrix(1,0,0,1,0,0)" fill-rule="nonzero"></path></g></g><g><path d=" M 1.8000000000000003 3.0599999999999996 Q 1.3365000000000002 3.0599999999999996 0.9990000000000001 2.8709999999999996 Q 0.6615000000000001 2.6819999999999995 0.47700000000000004 2.3534999999999995 Q 0.29250000000000004 2.0249999999999995 0.29250000000000004 1.6064999999999996 Q 0.29250000000000004 1.2824999999999995 0.41850000000000004 0.9944999999999995 Q 0.5445000000000001 0.7064999999999992 0.76275 0.4814999999999996 Q 0.9810000000000001 0.2564999999999995 1.2645000000000002 0.12824999999999953 Q 1.5480000000000003 -8.881784197001252e-16 1.8675000000000002 -8.881784197001252e-16 Q 2.0970000000000004 -8.881784197001252e-16 2.2545 0.029249999999999332 Q 2.4120000000000004 0.05849999999999955 2.53575 0.10574999999999912 Q 2.6595000000000004 0.15299999999999914 2.7855000000000003 0.2159999999999993 L 2.8125000000000004 1.0169999999999995 L 2.7315000000000005 1.0169999999999995 L 2.4210000000000003 0.4319999999999995 Q 2.2680000000000002 0.3239999999999994 2.1442500000000004 0.2744999999999993 Q 2.0205 0.2249999999999992 1.8675000000000002 0.2249999999999992 Q 1.5570000000000002 0.2249999999999992 1.3095 0.38699999999999957 Q 1.062 0.5489999999999995 0.9202500000000001 0.8347499999999992 Q 0.7785000000000001 1.1204999999999994 0.7785000000000001 1.4939999999999996 Q 0.7785000000000001 1.9124999999999996 0.9157500000000001 2.2117499999999994 Q 1.0530000000000002 2.5109999999999997 1.2870000000000001 2.6685 Q 1.5210000000000001 2.8259999999999996 1.8045000000000002 2.8259999999999996 Q 2.0385000000000004 2.8259999999999996 2.1982500000000003 2.763 Q 2.358 2.6999999999999997 2.4840000000000004 2.6144999999999996 L 2.7855000000000003 2.1104999999999996 L 2.8620000000000005 2.1104999999999996 L 2.8080000000000003 2.8349999999999995 Q 2.6100000000000003 2.9339999999999997 2.3850000000000002 2.997 Q 2.16 3.0599999999999996 1.8000000000000003 3.0599999999999996 M 3.4517381835937497 3.0149999999999997 L 3.4517381835937497 2.9429999999999996 L 3.7352381835937494 2.7944999999999998 L 4.89173818359375 0.02249999999999952 L 5.13923818359375 0.02249999999999952 L 6.2822381835937495 2.7809999999999997 L 6.58373818359375 2.9429999999999996 L 6.58373818359375 3.0149999999999997 L 5.39573818359375 3.0149999999999997 L 5.39573818359375 2.9429999999999996 L 5.79173818359375 2.7855 L 5.45873818359375 1.9754999999999996 L 4.37423818359375 1.9754999999999996 L 4.04573818359375 2.7899999999999996 L 4.42373818359375 2.9429999999999996 L 4.42373818359375 3.0149999999999997 L 3.4517381835937497 3.0149999999999997 M 4.4777381835937495 1.7279999999999995 L 5.35973818359375 1.7279999999999995 L 4.918738183593749 0.6434999999999995 L 4.4777381835937495 1.7279999999999995 M 7.1418796874999995 3.0149999999999997 L 7.1418796874999995 2.9429999999999996 L 7.506379687499999 2.763 L 7.506379687499999 0.29699999999999926 L 7.1418796874999995 0.11699999999999955 L 7.1418796874999995 0.044999999999999485 L 8.392879687499999 0.044999999999999485 Q 8.865379687499999 0.044999999999999485 9.137629687499999 0.24074999999999935 Q 9.409879687499998 0.4364999999999992 9.409879687499998 0.7784999999999993 Q 9.409879687499998 1.0304999999999995 9.238879687499999 1.2239999999999995 Q 9.0678796875 1.4174999999999995 8.7888796875 1.5209999999999995 L 9.6393796875 2.7764999999999995 L 9.940879687499999 2.9429999999999996 L 9.940879687499999 3.0149999999999997 L 9.2163796875 3.0149999999999997 L 8.3523796875 1.6469999999999996 L 7.978879687499999 1.6469999999999996 L 7.978879687499999 2.7584999999999997 L 8.3163796875 2.9429999999999996 L 8.3163796875 3.0149999999999997 L 7.1418796874999995 3.0149999999999997 M 8.244379687499999 0.29249999999999954 L 7.978879687499999 0.29249999999999954 L 7.978879687499999 1.4084999999999994 L 8.2713796875 1.4084999999999994 Q 8.5503796875 1.4084999999999994 8.7326296875 1.2487499999999996 Q 8.9148796875 1.0889999999999995 8.9148796875 0.8414999999999995 Q 8.9148796875 0.5849999999999995 8.7371296875 0.4387499999999993 Q 8.5593796875 0.29249999999999954 8.244379687499999 0.29249999999999954 M 10.341613476562499 3.0149999999999997 L 10.341613476562499 2.9429999999999996 L 10.7061134765625 2.763 L 10.7061134765625 0.29699999999999926 L 10.341613476562499 0.11699999999999955 L 10.341613476562499 0.044999999999999485 L 12.600613476562499 0.044999999999999485 L 12.600613476562499 0.8189999999999995 L 12.5286134765625 0.8189999999999995 L 12.2361134765625 0.29249999999999954 L 11.1786134765625 0.29249999999999954 L 11.1786134765625 1.3589999999999995 L 11.9256134765625 1.3589999999999995 L 12.1551134765625 0.9809999999999994 L 12.227113476562499 0.9809999999999994 L 12.227113476562499 1.9754999999999996 L 12.1551134765625 1.9754999999999996 L 11.9256134765625 1.6064999999999996 L 11.1786134765625 1.6064999999999996 L 11.1786134765625 2.7674999999999996 L 12.357613476562499 2.7674999999999996 L 12.6546134765625 2.1734999999999998 L 12.726613476562498 2.1734999999999998 L 12.726613476562498 3.0149999999999997 L 10.341613476562499 3.0149999999999997 M 13.460323095703123 3.0149999999999997 L 13.460323095703123 2.9429999999999996 L 13.824823095703124 2.763 L 13.824823095703124 0.29699999999999926 L 13.460323095703123 0.11699999999999955 L 13.460323095703123 0.044999999999999485 L 14.720323095703122 0.044999999999999485 Q 15.251323095703123 0.044999999999999485 15.573073095703123 0.23849999999999927 Q 15.894823095703124 0.4319999999999995 15.894823095703124 0.8504999999999994 Q 15.894823095703124 1.0979999999999994 15.726073095703123 1.2892499999999996 Q 15.557323095703124 1.4804999999999995 15.269323095703124 1.5907499999999994 Q 14.981323095703123 1.7009999999999996 14.612323095703124 1.7009999999999996 L 14.297323095703124 1.7009999999999996 L 14.297323095703124 2.763 L 14.711323095703124 2.9429999999999996 L 14.711323095703124 3.0149999999999997 L 13.460323095703123 3.0149999999999997 M 14.297323095703124 0.29249999999999954 L 14.297323095703124 1.4624999999999995 L 14.639323095703123 1.4624999999999995 Q 14.994823095703124 1.4624999999999995 15.197323095703123 1.3004999999999995 Q 15.399823095703123 1.1384999999999994 15.399823095703123 0.8864999999999994 Q 15.399823095703123 0.5714999999999995 15.195073095703123 0.4319999999999995 Q 14.990323095703124 0.29249999999999954 14.607823095703123 0.29249999999999954 L 14.297323095703124 0.29249999999999954 M 16.043581054687497 3.0149999999999997 L 16.043581054687497 2.9429999999999996 L 16.327081054687497 2.7944999999999998 L 17.483581054687498 0.02249999999999952 L 17.731081054687497 0.02249999999999952 L 18.874081054687498 2.7809999999999997 L 19.1755810546875 2.9429999999999996 L 19.1755810546875 3.0149999999999997 L 17.987581054687496 3.0149999999999997 L 17.987581054687496 2.9429999999999996 L 18.383581054687497 2.7855 L 18.0505810546875 1.9754999999999996 L 16.966081054687496 1.9754999999999996 L 16.637581054687498 2.7899999999999996 L 17.015581054687498 2.9429999999999996 L 17.015581054687498 3.0149999999999997 L 16.043581054687497 3.0149999999999997 M 17.069581054687497 1.7279999999999995 L 17.951581054687498 1.7279999999999995 L 17.510581054687496 0.6434999999999995 L 17.069581054687497 1.7279999999999995 M 19.751722558593748 3.0149999999999997 L 19.751722558593748 2.9429999999999996 L 20.120722558593748 2.763 L 20.120722558593748 0.29699999999999926 L 19.751722558593748 0.11699999999999955 L 19.751722558593748 0.044999999999999485 L 20.953222558593747 0.044999999999999485 L 20.953222558593747 0.11699999999999955 L 20.588722558593748 0.29699999999999926 L 20.588722558593748 2.763 L 20.953222558593747 2.9429999999999996 L 20.953222558593747 3.0149999999999997 L 19.751722558593748 3.0149999999999997 M 21.664535449218747 3.0149999999999997 L 21.664535449218747 2.9429999999999996 L 22.029035449218746 2.763 L 22.029035449218746 0.29699999999999926 L 21.664535449218747 0.11699999999999955 L 21.664535449218747 0.044999999999999485 L 22.915535449218748 0.044999999999999485 Q 23.388035449218748 0.044999999999999485 23.660285449218748 0.24074999999999935 Q 23.932535449218747 0.4364999999999992 23.932535449218747 0.7784999999999993 Q 23.932535449218747 1.0304999999999995 23.761535449218748 1.2239999999999995 Q 23.59053544921875 1.4174999999999995 23.31153544921875 1.5209999999999995 L 24.16203544921875 2.7764999999999995 L 24.463535449218746 2.9429999999999996 L 24.463535449218746 3.0149999999999997 L 23.739035449218747 3.0149999999999997 L 22.875035449218746 1.6469999999999996 L 22.501535449218746 1.6469999999999996 L 22.501535449218746 2.7584999999999997 L 22.83903544921875 2.9429999999999996 L 22.83903544921875 3.0149999999999997 L 21.664535449218747 3.0149999999999997 M 22.767035449218746 0.29249999999999954 L 22.501535449218746 0.29249999999999954 L 22.501535449218746 1.4084999999999994 L 22.794035449218747 1.4084999999999994 Q 23.073035449218747 1.4084999999999994 23.255285449218746 1.2487499999999996 Q 23.437535449218746 1.0889999999999995 23.437535449218746 0.8414999999999995 Q 23.437535449218746 0.5849999999999995 23.259785449218747 0.4387499999999993 Q 23.082035449218747 0.29249999999999954 22.767035449218746 0.29249999999999954 M 25.813769238281246 1.9574999999999996 Q 25.539269238281246 1.9574999999999996 25.323269238281245 1.8292499999999996 Q 25.107269238281248 1.7009999999999996 24.981269238281246 1.4782499999999994 Q 24.855269238281245 1.2554999999999994 24.855269238281245 0.9764999999999993 Q 24.855269238281245 0.7019999999999995 24.981269238281246 0.4792499999999995 Q 25.107269238281248 0.2564999999999995 25.323269238281245 0.12824999999999953 Q 25.539269238281246 -8.881784197001252e-16 25.813769238281246 -8.881784197001252e-16 Q 26.088269238281246 -8.881784197001252e-16 26.306519238281247 0.12824999999999953 Q 26.524769238281245 0.2564999999999995 26.650769238281246 0.4792499999999995 Q 26.776769238281247 0.7019999999999995 26.776769238281247 0.9764999999999993 Q 26.776769238281247 1.2554999999999994 26.650769238281246 1.4782499999999994 Q 26.524769238281245 1.7009999999999996 26.306519238281247 1.8292499999999996 Q 26.088269238281246 1.9574999999999996 25.813769238281246 1.9574999999999996 M 25.813769238281246 1.8179999999999996 Q 26.052269238281248 1.8179999999999996 26.236769238281248 1.7077499999999994 Q 26.421269238281248 1.5974999999999995 26.522519238281248 1.4062499999999996 Q 26.623769238281245 1.2149999999999994 26.623769238281245 0.9764999999999993 Q 26.623769238281245 0.7379999999999995 26.522519238281248 0.5489999999999995 Q 26.421269238281248 0.35999999999999943 26.236769238281248 0.24974999999999925 Q 26.052269238281248 0.1394999999999995 25.813769238281246 0.1394999999999995 Q 25.575269238281248 0.1394999999999995 25.393019238281248 0.24974999999999925 Q 25.210769238281244 0.35999999999999943 25.109519238281248 0.5489999999999995 Q 25.008269238281247 0.7379999999999995 25.008269238281247 0.9764999999999993 Q 25.008269238281247 1.2149999999999994 25.109519238281248 1.4062499999999996 Q 25.210769238281244 1.5974999999999995 25.393019238281248 1.7077499999999994 Q 25.575269238281248 1.8179999999999996 25.813769238281246 1.8179999999999996 M 25.323269238281245 1.5389999999999995 L 25.323269238281245 1.5074999999999994 L 25.462769238281247 1.4354999999999996 L 25.462769238281247 0.4904999999999995 L 25.323269238281245 0.41849999999999943 L 25.323269238281245 0.3914999999999993 L 25.818269238281246 0.3914999999999993 Q 25.998269238281246 0.3914999999999993 26.104019238281246 0.4679999999999995 Q 26.209769238281247 0.5444999999999993 26.209769238281247 0.6749999999999994 Q 26.209769238281247 0.7739999999999996 26.142269238281248 0.8527499999999995 Q 26.074769238281245 0.9314999999999993 25.966769238281245 0.9719999999999995 L 26.209769238281247 1.4489999999999994 L 26.326769238281248 1.5074999999999994 L 26.326769238281248 1.5389999999999995 L 26.025269238281247 1.5389999999999995 L 25.768769238281244 1.0124999999999993 L 25.665269238281248 1.0124999999999993 L 25.665269238281248 1.4354999999999996 L 25.800269238281246 1.5074999999999994 L 25.800269238281246 1.5389999999999995 L 25.323269238281245 1.5389999999999995 M 25.750769238281247 0.4949999999999992 L 25.665269238281248 0.4949999999999992 L 25.665269238281248 0.9089999999999994 L 25.759769238281248 0.9089999999999994 Q 25.858769238281248 0.9089999999999994 25.926269238281247 0.8549999999999995 Q 25.993769238281246 0.8009999999999993 25.993769238281246 0.6974999999999993 Q 25.993769238281246 0.5939999999999994 25.924019238281247 0.5444999999999993 Q 25.854269238281248 0.4949999999999992 25.750769238281247 0.4949999999999992" fill="#ff8080" fill-rule="nonzero"></path></g><g><path d=" M 0.0649626923076923 4.6359960576923065 Q 0.0649626923076923 4.535458557692306 0.09976413461538461 4.438787884615383 Q 0.1345655769230769 4.34211721153846 0.201075 4.2624605769230755 Q 0.2675844230769231 4.18280394230769 0.3650284615384615 4.135628653846152 Q 0.4624725 4.088453365384614 0.5862109615384615 4.088453365384614 Q 0.7331503846153846 4.088453365384614 0.8375547115384615 4.155736153846152 Q 0.9419590384615385 4.22301894230769 0.9914544230769231 4.328196634615383 L 0.9063842307692308 4.380785480769229 Q 0.8708094230769231 4.308089134615383 0.8166738461538462 4.265554038461537 Q 0.7625382692307692 4.22301894230769 0.7014424038461539 4.2044581730769215 Q 0.6403465384615384 4.185897403846152 0.5800240384615385 4.185897403846152 Q 0.4810332692307692 4.185897403846152 0.4052434615384615 4.225339038461537 Q 0.3294536538461538 4.264780673076921 0.27763817307692307 4.330516730769229 Q 0.2258226923076923 4.3962527884615366 0.19952826923076922 4.477456153846152 Q 0.17323384615384615 4.558659519230767 0.17323384615384615 4.642182980769229 Q 0.17323384615384615 4.733440096153845 0.20416846153846155 4.816963557692306 Q 0.23510307692307691 4.900487019230767 0.2907853846153846 4.964676346153844 Q 0.3464676923076923 5.028865673076921 0.4214841346153846 5.066760576923075 Q 0.4965005769230769 5.104655480769229 0.5846642307692308 5.104655480769229 Q 0.6465334615384616 5.104655480769229 0.7114961538461538 5.083001249999998 Q 0.7764588461538462 5.061347019230768 0.8329145192307692 5.016491826923075 Q 0.8893701923076923 4.971636634615383 0.9233982692307692 4.900487019230767 L 1.0131086538461538 4.946888942307691 Q 0.9790805769230769 5.028865673076921 0.9079309615384615 5.08609471153846 Q 0.8367813461538461 5.143323749999999 0.7493910576923076 5.172711634615383 Q 0.6620007692307692 5.202099519230767 0.5784773076923077 5.202099519230767 Q 0.4655659615384615 5.202099519230767 0.3712153846153846 5.153377499999999 Q 0.2768648076923077 5.104655480769229 0.20803528846153846 5.023452115384614 Q 0.13920576923076922 4.942248749999998 0.10208423076923077 4.840937884615383 Q 0.0649626923076923 4.739627019230768 0.0649626923076923 4.6359960576923065 M 1.1692884338378906 4.860272019230767 L 1.1692884338378906 4.386972403846152 L 1.274466126145583 4.386972403846152 L 1.274466126145583 4.841711249999999 Q 1.274466126145583 4.979370288461537 1.3216414146071214 5.047426442307691 Q 1.36881670306866 5.115482596153845 1.461620549222506 5.115482596153845 Q 1.5234897799917368 5.115482596153845 1.5814921838378906 5.088414807692306 Q 1.6394945876840445 5.061347019230768 1.6843497799917366 5.011078269230768 Q 1.7292049722994292 4.960809519230768 1.7524059338378906 4.894300096153844 L 1.7524059338378906 4.386972403846152 L 1.857583626145583 4.386972403846152 L 1.857583626145583 5.065987211538459 Q 1.857583626145583 5.0876414423076906 1.8668640107609675 5.0976951923076905 Q 1.8761443953763521 5.1077489423076905 1.8947051646071214 5.109295673076922 L 1.8947051646071214 5.192819134615383 Q 1.8761443953763521 5.194365865384614 1.8653172799917368 5.195139230769229 Q 1.8544901646071215 5.195912596153844 1.8452097799917366 5.195912596153844 Q 1.8142751646071213 5.192819134615383 1.7918475684532753 5.171164903846152 Q 1.769419972299429 5.149510673076922 1.7678732415301983 5.118576057692306 L 1.7647797799917369 5.010304903846152 Q 1.7121909338378907 5.103108749999999 1.6217071838378905 5.1556975961538445 Q 1.5312234338378907 5.20828644230769 1.4260457415301984 5.20828644230769 Q 1.2992138184532753 5.20828644230769 1.2342511261455829 5.120122788461536 Q 1.1692884338378906 5.0319591346153825 1.1692884338378906 4.860272019230767 M 2.360262063269982 5.20828644230769 Q 2.261271294039213 5.20828644230769 2.1762011017315204 5.175805096153844 Q 2.091130909423828 5.143323749999999 2.0292616786545974 5.076814326923075 L 2.0725701401930587 5.002571249999998 Q 2.1406262940392127 5.065987211538459 2.2094558132699817 5.094601730769229 Q 2.2782853325007513 5.123216249999999 2.3556218709622896 5.123216249999999 Q 2.4499724478853664 5.123216249999999 2.5087482171161355 5.085321346153845 Q 2.567523986346905 5.047426442307691 2.567523986346905 4.976276826923075 Q 2.567523986346905 4.928328173076921 2.538909467116136 4.902807115384614 Q 2.5102949478853667 4.877286057692306 2.456932736346905 4.861045384615383 Q 2.4035705248084436 4.84480471153846 2.3293274478853663 4.82624394230769 Q 2.245803986346905 4.803042980769229 2.189348313269982 4.777521923076922 Q 2.132892640193059 4.7520008653846135 2.1042781209622894 4.712559230769229 Q 2.07566360173152 4.673117596153844 2.07566360173152 4.609701634615383 Q 2.07566360173152 4.530818365384613 2.115105236346905 4.479002884615383 Q 2.1545468709622897 4.427187403846152 2.2233763901930588 4.400119615384614 Q 2.292205909423828 4.373051826923075 2.3772761017315203 4.373051826923075 Q 2.4700799478853663 4.373051826923075 2.5412295632699817 4.4024397115384595 Q 2.612379178654597 4.431827596153845 2.6572343709622896 4.48441644230769 L 2.606192255577674 4.555566057692306 Q 2.5628837940392124 4.5060706730769216 2.503334659423828 4.482096346153845 Q 2.4437855248084435 4.458122019230768 2.3710891786545973 4.458122019230768 Q 2.3215937940392126 4.458122019230768 2.2767386017315205 4.471269230769229 Q 2.231883409423828 4.48441644230769 2.203268890193059 4.51457769230769 Q 2.1746543709622896 4.54473894230769 2.1746543709622896 4.597327788461537 Q 2.1746543709622896 4.640636249999998 2.1963086017315203 4.664610576923075 Q 2.217962832500751 4.688584903846152 2.261271294039213 4.704825576923075 Q 2.304579755577674 4.721066249999998 2.367995717116136 4.739627019230768 Q 2.459252832500751 4.76437471153846 2.527308986346905 4.7898957692307675 Q 2.595365140193059 4.815416826923075 2.6324866786545975 4.855631826923076 Q 2.669608217116136 4.8958468269230755 2.669608217116136 4.968543173076921 Q 2.669608217116136 5.081454519230768 2.5845380248084435 5.144870480769229 Q 2.499467832500751 5.20828644230769 2.360262063269982 5.20828644230769 M 3.2294801964393027 5.154150865384613 Q 3.2171063502854564 5.158791057692306 3.1908119272085336 5.171164903846152 Q 3.1645175041316103 5.1835387499999985 3.127395965670072 5.192819134615383 Q 3.0902744272085334 5.202099519230767 3.046965965670072 5.202099519230767 Q 3.0021107733623795 5.202099519230767 2.9626691387469952 5.185085480769229 Q 2.9232275041316105 5.16807144230769 2.900026542593149 5.133269999999999 Q 2.876825581054687 5.098468557692306 2.876825581054687 5.047426442307691 L 2.876825581054687 4.470495865384613 L 2.765460965670072 4.470495865384613 L 2.765460965670072 4.386972403846152 L 2.876825581054687 4.386972403846152 L 2.876825581054687 4.114747788461537 L 2.9820032733623796 4.114747788461537 L 2.9820032733623796 4.386972403846152 L 3.167610965670072 4.386972403846152 L 3.167610965670072 4.470495865384613 L 2.9820032733623796 4.470495865384613 L 2.9820032733623796 5.018038557692306 Q 2.985096734900841 5.061347019230768 3.0137112541316107 5.083001249999998 Q 3.04232577336238 5.104655480769229 3.0794473118239183 5.104655480769229 Q 3.1227557733623796 5.104655480769229 3.1583305810546873 5.089961538461536 Q 3.193905388746995 5.075267596153845 3.2016390425931487 5.069080673076922 L 3.2294801964393027 5.154150865384613 M 3.6904830001126805 5.20828644230769 Q 3.6038660770357573 5.20828644230769 3.5303963654972956 5.175031730769229 Q 3.4569266539588344 5.1417770192307675 3.4035644424203726 5.0837746153846135 Q 3.3502022308819113 5.0257722115384595 3.3208143462665265 4.950755769230767 Q 3.2914264616511417 4.8757393269230755 3.2914264616511417 4.792215865384613 Q 3.2914264616511417 4.705598942307691 3.3208143462665265 4.630582499999998 Q 3.3502022308819113 4.555566057692306 3.404337807804988 4.497563653846152 Q 3.458473384728065 4.439561249999999 3.5319430962665264 4.4063065384615365 Q 3.605412807804988 4.373051826923075 3.692029730881911 4.373051826923075 Q 3.778646653958834 4.373051826923075 3.8513430001126805 4.4063065384615365 Q 3.9240393462665266 4.439561249999999 3.9781749231896035 4.497563653846152 Q 4.03231050011268 4.555566057692306 4.061698384728065 4.630582499999998 Q 4.0910862693434495 4.705598942307691 4.0910862693434495 4.792215865384613 Q 4.0910862693434495 4.8757393269230755 4.061698384728065 4.950755769230767 Q 4.03231050011268 5.0257722115384595 3.9789482885742187 5.0837746153846135 Q 3.9255860770357573 5.1417770192307675 3.8521163654972956 5.175031730769229 Q 3.778646653958834 5.20828644230769 3.6904830001126805 5.20828644230769 M 3.398150884728065 4.793762596153845 Q 3.398150884728065 4.883472980769229 3.4375925193434496 4.956942692307691 Q 3.4770341539588343 5.030412403846152 3.5435435770357575 5.072947499999998 Q 3.6100530001126803 5.115482596153845 3.6904830001126805 5.115482596153845 Q 3.7709130001126803 5.115482596153845 3.8374224231896035 5.072174134615383 Q 3.9039318462665262 5.028865673076921 3.9441468462665266 4.9538492307692295 Q 3.9843618462665265 4.878832788461537 3.9843618462665265 4.790669134615383 Q 3.9843618462665265 4.700958749999998 3.9441468462665266 4.626715673076921 Q 3.9039318462665262 4.552472596153844 3.8374224231896035 4.509164134615383 Q 3.7709130001126803 4.465855673076922 3.6904830001126805 4.465855673076922 Q 3.6100530001126803 4.465855673076922 3.5443169424203727 4.510710865384613 Q 3.478580884728065 4.555566057692306 3.438365884728065 4.629035769230768 Q 3.398150884728065 4.702505480769229 3.398150884728065 4.793762596153845 M 5.466084608811599 5.192819134615383 L 5.3609069165039065 5.192819134615383 L 5.3609069165039065 4.742720480769229 Q 5.3609069165039065 4.6019679807692295 5.316051724196214 4.535458557692306 Q 5.271196531888521 4.468949134615383 5.183032878042368 4.468949134615383 Q 5.091775762657752 4.468949134615383 5.019852781888522 4.533911826923076 Q 4.947929801119291 4.598874519230767 4.918541916503906 4.700958749999998 L 4.918541916503906 5.192819134615383 L 4.813364224196214 5.192819134615383 L 4.813364224196214 4.742720480769229 Q 4.813364224196214 4.600421249999998 4.770055762657752 4.53468519230769 Q 4.726747301119291 4.468949134615383 4.637036916503907 4.468949134615383 Q 4.547326531888522 4.468949134615383 4.474630185734676 4.532365096153844 Q 4.401933839580829 4.595781057692306 4.372545954965445 4.699412019230768 L 4.372545954965445 5.192819134615383 L 4.267368262657753 5.192819134615383 L 4.267368262657753 4.386972403846152 L 4.36326557035006 4.386972403846152 L 4.36326557035006 4.569486634615383 Q 4.414307685734675 4.475136057692306 4.49396432035006 4.424093942307691 Q 4.5736209549654445 4.373051826923075 4.671064993426983 4.373051826923075 Q 4.771602493426983 4.373051826923075 4.8334717241962135 4.4302808653846135 Q 4.8953409549654445 4.487509903846152 4.9092615318885215 4.580313749999998 Q 4.96494383958083 4.4782295192307675 5.0430537434269835 4.425640673076922 Q 5.121163647273137 4.373051826923075 5.220154416503906 4.373051826923075 Q 5.28821057035006 4.373051826923075 5.335385858811598 4.397799519230768 Q 5.382561147273137 4.422547211538459 5.411175666503906 4.4681757692307675 Q 5.439790185734676 4.513804326923076 5.452937397273137 4.5779936538461525 Q 5.466084608811599 4.642182980769229 5.466084608811599 4.721066249999998 L 5.466084608811599 5.192819134615383 M 5.688823657696064 5.192819134615383 L 5.688823657696064 4.386972403846152 L 5.794001350003756 4.386972403846152 L 5.794001350003756 5.192819134615383 L 5.688823657696064 5.192819134615383 M 5.688823657696064 4.2183787499999985 L 5.688823657696064 4.063705673076921 L 5.794001350003756 4.063705673076921 L 5.794001350003756 4.2183787499999985 L 5.688823657696064 4.2183787499999985 M 5.957982000169021 5.1216695192307675 L 6.497791038630559 4.465855673076922 L 5.9703558463228665 4.465855673076922 L 5.9703558463228665 4.386972403846152 L 6.616889307861328 4.386972403846152 L 6.616889307861328 4.458122019230768 L 6.0801737309382515 5.113935865384613 L 6.615342577092098 5.113935865384613 L 6.615342577092098 5.192819134615383 L 5.957982000169021 5.192819134615383 L 5.957982000169021 5.1216695192307675 M 7.118058020958534 5.20828644230769 Q 7.031441097881611 5.20828644230769 6.9571980209585345 5.175031730769229 Q 6.882954944035457 5.1417770192307675 6.82881936711238 5.0837746153846135 Q 6.774683790189303 5.0257722115384595 6.744522540189303 4.949982403846152 Q 6.714361290189303 4.874192596153844 6.714361290189303 4.787575673076922 Q 6.714361290189303 4.674664326923075 6.766176770958534 4.580313749999998 Q 6.817992251727765 4.485963173076922 6.9092493671123805 4.429507499999998 Q 7.000506482496996 4.373051826923075 7.116511290189303 4.373051826923075 Q 7.235609559420072 4.373051826923075 7.324546578650842 4.4302808653846135 Q 7.413483597881611 4.487509903846152 7.464525713266227 4.581087115384614 Q 7.515567828650842 4.674664326923075 7.515567828650842 4.7860289423076905 Q 7.515567828650842 4.798402788461537 7.515567828650842 4.8100032692307675 Q 7.515567828650842 4.821603749999999 7.514021097881611 4.827790673076922 L 6.824179174804688 4.827790673076922 Q 6.831912828650841 4.914407596153844 6.872901194035457 4.981690384615383 Q 6.913889559420072 5.048973173076921 6.97962561711238 5.088414807692306 Q 7.0453616748046874 5.12785644230769 7.122698213266227 5.12785644230769 Q 7.201581482496995 5.12785644230769 7.271957732496995 5.0876414423076906 Q 7.342333982496996 5.047426442307691 7.37017513634315 4.982463749999998 L 7.461432251727764 5.007211442307691 Q 7.436684559420073 5.064440480769229 7.385642444035457 5.110842403846152 Q 7.334600328650842 5.157244326923076 7.265770809420072 5.182765384615383 Q 7.1969412901893035 5.20828644230769 7.118058020958534 5.20828644230769 M 6.821085713266227 4.7520008653846135 L 7.416577059420073 4.7520008653846135 Q 7.41039013634315 4.66383721153846 7.369401770958534 4.597327788461537 Q 7.328413405573919 4.530818365384613 7.262677347881611 4.49292346153846 Q 7.1969412901893035 4.455028557692306 7.118058020958534 4.455028557692306 Q 7.0391747517277645 4.455028557692306 6.974212059420072 4.49292346153846 Q 6.9092493671123805 4.530818365384613 6.868261001727765 4.5981011538461525 Q 6.8272726363431495 4.665383942307691 6.821085713266227 4.7520008653846135 M 7.623800465275692 4.792215865384613 Q 7.623800465275692 4.677757788461537 7.67097575373723 4.582633846153844 Q 7.718151042198769 4.487509903846152 7.80167450373723 4.4302808653846135 Q 7.885197965275692 4.373051826923075 7.991922388352615 4.373051826923075 Q 8.092459888352614 4.373051826923075 8.172116522967999 4.4264140384615365 Q 8.251773157583385 4.479776249999999 8.296628349891076 4.555566057692306 L 8.296628349891076 4.063705673076921 L 8.401806042198768 4.063705673076921 L 8.401806042198768 5.065987211538459 Q 8.401806042198768 5.0876414423076906 8.411086426814153 5.0976951923076905 Q 8.420366811429538 5.1077489423076905 8.438927580660307 5.109295673076922 L 8.438927580660307 5.192819134615383 Q 8.407992965275692 5.1974593269230756 8.390978926814153 5.195912596153844 Q 8.358497580660307 5.194365865384614 8.333749888352616 5.1696181730769215 Q 8.309002196044922 5.144870480769229 8.309002196044922 5.115482596153845 L 8.309002196044922 5.036599326923075 Q 8.261053542198768 5.115482596153845 8.179076811429537 5.161884519230767 Q 8.097100080660308 5.20828644230769 8.008936426814152 5.20828644230769 Q 7.925412965275692 5.20828644230769 7.855036715275691 5.174258365384613 Q 7.784660465275691 5.140230288461537 7.732844984506461 5.081454519230768 Q 7.68102950373723 5.022678749999998 7.652414984506461 4.947662307692306 Q 7.623800465275692 4.872645865384614 7.623800465275692 4.792215865384613 M 8.296628349891076 4.915954326923075 L 8.296628349891076 4.666930673076921 Q 8.276520849891076 4.611248365384614 8.231665657583385 4.565619807692306 Q 8.186810465275691 4.519991249999999 8.13035479219877 4.49292346153846 Q 8.073899119121846 4.465855673076922 8.018216811429538 4.465855673076922 Q 7.953254119121845 4.465855673076922 7.900665272967999 4.49292346153846 Q 7.848076426814153 4.519991249999999 7.810181522968 4.566393173076921 Q 7.772286619121846 4.612795096153844 7.752179119121846 4.671570865384614 Q 7.732071619121846 4.730346634615383 7.732071619121846 4.792215865384613 Q 7.732071619121846 4.857178557692306 7.7544992152756915 4.915954326923075 Q 7.776926811429538 4.974730096153844 7.818688542198768 5.020358653846152 Q 7.8604502729679995 5.065987211538459 7.914585849891076 5.090734903846152 Q 7.968721426814153 5.115482596153845 8.032137388352615 5.115482596153845 Q 8.072352388352614 5.115482596153845 8.115660849891077 5.100015288461536 Q 8.158969311429537 5.084547980769229 8.198410946044923 5.057480192307691 Q 8.237852580660308 5.030412403846152 8.26414700373723 4.993290865384614 Q 8.290441426814153 4.956169326923075 8.296628349891076 4.915954326923075 M 9.697988328763522 4.3003554807692295 Q 9.67478736722506 4.274061057692306 9.643852751840445 4.25318019230769 Q 9.612918136455828 4.2322993269230755 9.57424986722506 4.216832019230767 Q 9.535581597994291 4.20136471153846 9.491499771071213 4.192084326923075 Q 9.447417944148137 4.18280394230769 9.397922559532752 4.18280394230769 Q 9.25407659799429 4.18280394230769 9.186793809532752 4.237712884615383 Q 9.119511021071213 4.292621826923075 9.119511021071213 4.386972403846152 Q 9.119511021071213 4.451935096153845 9.151219001840445 4.489056634615383 Q 9.182926982609676 4.5261781730769215 9.25098313645583 4.549379134615383 Q 9.319039290301983 4.572580096153844 9.424216982609675 4.597327788461537 Q 9.541768521071214 4.6220754807692295 9.626838713378906 4.656103557692306 Q 9.711908905686599 4.690131634615383 9.758310828763522 4.7481340384615365 Q 9.804712751840444 4.80613644230769 9.804712751840444 4.90512721153846 Q 9.804712751840444 4.980917019230768 9.77532486722506 5.036599326923075 Q 9.745936982609676 5.092281634615383 9.69334813645583 5.129403173076922 Q 9.640759290301983 5.16652471153846 9.568062944148137 5.184312115384614 Q 9.495366597994291 5.202099519230767 9.408749674917368 5.202099519230767 Q 9.323679482609675 5.202099519230767 9.245569578763522 5.184312115384614 Q 9.167459674917367 5.16652471153846 9.097856790301982 5.1317232692307675 Q 9.028253905686599 5.096921826923075 8.967931405686599 5.042786249999998 L 9.022066982609676 4.954622596153844 Q 9.05145486722506 4.98555721153846 9.092443232609675 5.012624999999998 Q 9.13343159799429 5.039692788461537 9.183700347994291 5.061347019230768 Q 9.23396909799429 5.083001249999998 9.291971501840445 5.094601730769229 Q 9.349973905686598 5.10620221153846 9.411843136455829 5.10620221153846 Q 9.543315251840445 5.10620221153846 9.616784963378906 5.058253557692306 Q 9.690254674917368 5.010304903846152 9.690254674917368 4.915954326923075 Q 9.690254674917368 4.8478981730769215 9.653133136455828 4.806909807692306 Q 9.61601159799429 4.7659214423076905 9.541768521071214 4.739627019230768 Q 9.467525444148137 4.713332596153845 9.359254290301983 4.688584903846152 Q 9.244796213378907 4.662290480769229 9.165912944148136 4.629809134615383 Q 9.087029674917368 4.597327788461537 9.047588040301983 4.543965576923076 Q 9.008146405686599 4.490603365384613 9.008146405686599 4.4024397115384595 Q 9.008146405686599 4.3003554807692295 9.058415155686598 4.229979230769229 Q 9.108683905686599 4.159602980769229 9.196847559532753 4.123254807692306 Q 9.285011213378906 4.086906634615383 9.399469290301983 4.086906634615383 Q 9.472165636455829 4.086906634615383 9.534808232609675 4.101600576923075 Q 9.597450828763522 4.116294519230768 9.650813040301983 4.144135673076922 Q 9.704175251840445 4.171976826923075 9.750577174917368 4.213738557692306 L 9.697988328763522 4.3003554807692295 M 9.965564444204476 4.860272019230767 L 9.965564444204476 4.386972403846152 L 10.070742136512168 4.386972403846152 L 10.070742136512168 4.841711249999999 Q 10.070742136512168 4.979370288461537 10.117917424973708 5.047426442307691 Q 10.165092713435246 5.115482596153845 10.257896559589092 5.115482596153845 Q 10.319765790358323 5.115482596153845 10.377768194204476 5.088414807692306 Q 10.435770598050631 5.061347019230768 10.480625790358323 5.011078269230768 Q 10.525480982666014 4.960809519230768 10.548681944204477 4.894300096153844 L 10.548681944204477 4.386972403846152 L 10.653859636512168 4.386972403846152 L 10.653859636512168 5.065987211538459 Q 10.653859636512168 5.0876414423076906 10.663140021127553 5.0976951923076905 Q 10.672420405742939 5.1077489423076905 10.690981174973707 5.109295673076922 L 10.690981174973707 5.192819134615383 Q 10.672420405742939 5.194365865384614 10.661593290358322 5.195139230769229 Q 10.650766174973707 5.195912596153844 10.641485790358322 5.195912596153844 Q 10.610551174973708 5.192819134615383 10.58812357881986 5.171164903846152 Q 10.565695982666014 5.149510673076922 10.564149251896785 5.118576057692306 L 10.561055790358322 5.010304903846152 Q 10.508466944204477 5.103108749999999 10.417983194204476 5.1556975961538445 Q 10.327499444204477 5.20828644230769 10.222321751896784 5.20828644230769 Q 10.095489828819861 5.20828644230769 10.030527136512168 5.120122788461536 Q 9.965564444204476 5.0319591346153825 9.965564444204476 4.860272019230767 M 11.30347749671349 5.20828644230769 Q 11.202939996713491 5.20828644230769 11.123283362098107 5.1556975961538445 Q 11.043626727482721 5.103108749999999 10.997224804405798 5.0257722115384595 L 10.997224804405798 5.522272788461537 L 10.892047112098107 5.522272788461537 L 10.892047112098107 4.386972403846152 L 10.986397689021183 4.386972403846152 L 10.986397689021183 4.54319221153846 Q 11.034346342867337 4.467402403846152 11.114776342867337 4.4202271153846135 Q 11.195206342867337 4.373051826923075 11.286463458251953 4.373051826923075 Q 11.369986919790414 4.373051826923075 11.439589804405799 4.407853269230768 Q 11.509192689021184 4.442654711538459 11.560234804405798 4.501430480769229 Q 11.611276919790415 4.5602062499999985 11.639891439021183 4.635222692307691 Q 11.668505958251952 4.710239134615383 11.668505958251952 4.790669134615383 Q 11.668505958251952 4.903580480769229 11.622877400559645 4.998704423076921 Q 11.577248842867338 5.0938283653846135 11.495272112098107 5.151057403846152 Q 11.413295381328876 5.20828644230769 11.30347749671349 5.20828644230769 M 11.274089612098106 5.115482596153845 Q 11.34059903517503 5.115482596153845 11.393187881328876 5.088414807692306 Q 11.445776727482722 5.061347019230768 11.483671631328875 5.014945096153845 Q 11.52156653517503 4.968543173076921 11.54167403517503 4.910540769230767 Q 11.56178153517503 4.852538365384614 11.56178153517503 4.790669134615383 Q 11.56178153517503 4.725706442307691 11.539353939021183 4.666930673076921 Q 11.516926342867338 4.6081549038461525 11.475164612098107 4.56329971153846 Q 11.433402881328876 4.518444519230767 11.379267304405799 4.4921500961538445 Q 11.325131727482722 4.465855673076922 11.26171576594426 4.465855673076922 Q 11.22150076594426 4.465855673076922 11.1781923044058 4.481322980769229 Q 11.134883842867337 4.496790288461536 11.095442208251953 4.525404807692306 Q 11.056000573636569 4.5540193269230755 11.029706150559646 4.589594134615383 Q 11.003411727482721 4.625168942307691 10.997224804405798 4.665383942307691 L 10.997224804405798 4.912860865384614 Q 11.021972496713492 4.970089903846152 11.063734227482723 5.01571846153846 Q 11.105495958251952 5.061347019230768 11.160404900559644 5.088414807692306 Q 11.215313842867337 5.115482596153845 11.274089612098106 5.115482596153845 M 12.257817178485576 5.20828644230769 Q 12.157279678485576 5.20828644230769 12.077623043870192 5.1556975961538445 Q 11.997966409254808 5.103108749999999 11.951564486177883 5.0257722115384595 L 11.951564486177883 5.522272788461537 L 11.846386793870192 5.522272788461537 L 11.846386793870192 4.386972403846152 L 11.940737370793268 4.386972403846152 L 11.940737370793268 4.54319221153846 Q 11.988686024639422 4.467402403846152 12.069116024639422 4.4202271153846135 Q 12.149546024639422 4.373051826923075 12.240803140024038 4.373051826923075 Q 12.324326601562499 4.373051826923075 12.393929486177884 4.407853269230768 Q 12.463532370793269 4.442654711538459 12.514574486177883 4.501430480769229 Q 12.5656166015625 4.5602062499999985 12.594231120793268 4.635222692307691 Q 12.622845640024037 4.710239134615383 12.622845640024037 4.790669134615383 Q 12.622845640024037 4.903580480769229 12.57721708233173 4.998704423076921 Q 12.531588524639423 5.0938283653846135 12.449611793870192 5.151057403846152 Q 12.36763506310096 5.20828644230769 12.257817178485576 5.20828644230769 M 12.22842929387019 5.115482596153845 Q 12.294938716947115 5.115482596153845 12.347527563100961 5.088414807692306 Q 12.400116409254807 5.061347019230768 12.438011313100962 5.014945096153845 Q 12.475906216947115 4.968543173076921 12.496013716947115 4.910540769230767 Q 12.516121216947115 4.852538365384614 12.516121216947115 4.790669134615383 Q 12.516121216947115 4.725706442307691 12.493693620793268 4.666930673076921 Q 12.471266024639423 4.6081549038461525 12.429504293870192 4.56329971153846 Q 12.38774256310096 4.518444519230767 12.333606986177884 4.4921500961538445 Q 12.279471409254807 4.465855673076922 12.216055447716345 4.465855673076922 Q 12.175840447716345 4.465855673076922 12.132531986177884 4.481322980769229 Q 12.089223524639422 4.496790288461536 12.049781890024038 4.525404807692306 Q 12.010340255408654 4.5540193269230755 11.98404583233173 4.589594134615383 Q 11.957751409254806 4.625168942307691 11.951564486177883 4.665383942307691 L 11.951564486177883 4.912860865384614 Q 11.976312178485577 4.970089903846152 12.018073909254808 5.01571846153846 Q 12.059835640024037 5.061347019230768 12.11474458233173 5.088414807692306 Q 12.169653524639422 5.115482596153845 12.22842929387019 5.115482596153845 M 13.144100706411507 5.20828644230769 Q 13.057483783334584 5.20828644230769 12.984014071796123 5.175031730769229 Q 12.910544360257662 5.1417770192307675 12.8571821487192 5.0837746153846135 Q 12.803819937180737 5.0257722115384595 12.774432052565354 4.950755769230767 Q 12.745044167949969 4.8757393269230755 12.745044167949969 4.792215865384613 Q 12.745044167949969 4.705598942307691 12.774432052565354 4.630582499999998 Q 12.803819937180737 4.555566057692306 12.857955514103814 4.497563653846152 Q 12.912091091026891 4.439561249999999 12.985560802565354 4.4063065384615365 Q 13.059030514103815 4.373051826923075 13.145647437180738 4.373051826923075 Q 13.23226436025766 4.373051826923075 13.304960706411507 4.4063065384615365 Q 13.377657052565354 4.439561249999999 13.431792629488431 4.497563653846152 Q 13.485928206411508 4.555566057692306 13.515316091026891 4.630582499999998 Q 13.544703975642276 4.705598942307691 13.544703975642276 4.792215865384613 Q 13.544703975642276 4.8757393269230755 13.515316091026891 4.950755769230767 Q 13.485928206411508 5.0257722115384595 13.432565994873046 5.0837746153846135 Q 13.379203783334583 5.1417770192307675 13.305734071796122 5.175031730769229 Q 13.23226436025766 5.20828644230769 13.144100706411507 5.20828644230769 M 12.851768591026891 4.793762596153845 Q 12.851768591026891 4.883472980769229 12.891210225642277 4.956942692307691 Q 12.930651860257662 5.030412403846152 12.997161283334584 5.072947499999998 Q 13.063670706411507 5.115482596153845 13.144100706411507 5.115482596153845 Q 13.224530706411507 5.115482596153845 13.29104012948843 5.072174134615383 Q 13.357549552565354 5.028865673076921 13.397764552565354 4.9538492307692295 Q 13.437979552565354 4.878832788461537 13.437979552565354 4.790669134615383 Q 13.437979552565354 4.700958749999998 13.397764552565354 4.626715673076921 Q 13.357549552565354 4.552472596153844 13.29104012948843 4.509164134615383 Q 13.224530706411507 4.465855673076922 13.144100706411507 4.465855673076922 Q 13.063670706411507 4.465855673076922 12.9979346487192 4.510710865384613 Q 12.932198591026891 4.555566057692306 12.891983591026891 4.629035769230768 Q 12.851768591026891 4.702505480769229 12.851768591026891 4.793762596153845 M 14.123135968956579 4.479776249999999 Q 14.017958276648887 4.48286971153846 13.938301642033503 4.538552019230767 Q 13.858645007418119 4.594234326923075 13.826163661264271 4.691678365384614 L 13.826163661264271 5.192819134615383 L 13.72098596895658 5.192819134615383 L 13.72098596895658 4.386972403846152 L 13.819976738187348 4.386972403846152 L 13.819976738187348 4.580313749999998 Q 13.86173846895658 4.495243557692306 13.930567988187349 4.442654711538459 Q 13.999397507418118 4.390065865384614 14.076734045879656 4.383878942307691 Q 14.092201353571964 4.3823322115384595 14.103801834341194 4.3823322115384595 Q 14.115402315110426 4.3823322115384595 14.123135968956579 4.383878942307691 L 14.123135968956579 4.479776249999999 M 14.650591552734374 5.154150865384613 Q 14.638217706580528 5.158791057692306 14.611923283503604 5.171164903846152 Q 14.58562886042668 5.1835387499999985 14.548507321965143 5.192819134615383 Q 14.511385783503604 5.202099519230767 14.468077321965144 5.202099519230767 Q 14.42322212965745 5.202099519230767 14.383780495042066 5.185085480769229 Q 14.344338860426681 5.16807144230769 14.32113789888822 5.133269999999999 Q 14.297936937349759 5.098468557692306 14.297936937349759 5.047426442307691 L 14.297936937349759 4.470495865384613 L 14.186572321965143 4.470495865384613 L 14.186572321965143 4.386972403846152 L 14.297936937349759 4.386972403846152 L 14.297936937349759 4.114747788461537 L 14.40311462965745 4.114747788461537 L 14.40311462965745 4.386972403846152 L 14.588722321965143 4.386972403846152 L 14.588722321965143 4.470495865384613 L 14.40311462965745 4.470495865384613 L 14.40311462965745 5.018038557692306 Q 14.406208091195913 5.061347019230768 14.434822610426682 5.083001249999998 Q 14.46343712965745 5.104655480769229 14.50055866811899 5.104655480769229 Q 14.543867129657452 5.104655480769229 14.579441937349758 5.089961538461536 Q 14.615016745042066 5.075267596153845 14.62275039888822 5.069080673076922 L 14.650591552734374 5.154150865384613 M 15.198175783221904 5.192819134615383 L 15.198175783221904 4.0946402884615365 L 15.918952321683442 4.0946402884615365 L 15.918952321683442 4.1905375961538445 L 15.306446937068058 4.1905375961538445 L 15.306446937068058 4.594234326923075 L 15.823055013991134 4.594234326923075 L 15.823055013991134 4.68394471153846 L 15.306446937068058 4.68394471153846 L 15.306446937068058 5.192819134615383 L 15.198175783221904 5.192819134615383 M 16.379830510817307 5.20828644230769 Q 16.293213587740382 5.20828644230769 16.21974387620192 5.175031730769229 Q 16.14627416466346 5.1417770192307675 16.092911953125 5.0837746153846135 Q 16.039549741586537 5.0257722115384595 16.010161856971152 4.950755769230767 Q 15.980773972355768 4.8757393269230755 15.980773972355768 4.792215865384613 Q 15.980773972355768 4.705598942307691 16.010161856971152 4.630582499999998 Q 16.039549741586537 4.555566057692306 16.093685318509614 4.497563653846152 Q 16.14782089543269 4.439561249999999 16.221290606971152 4.4063065384615365 Q 16.294760318509613 4.373051826923075 16.381377241586538 4.373051826923075 Q 16.467994164663462 4.373051826923075 16.540690510817306 4.4063065384615365 Q 16.613386856971154 4.439561249999999 16.66752243389423 4.497563653846152 Q 16.721658010817308 4.555566057692306 16.751045895432693 4.630582499999998 Q 16.780433780048078 4.705598942307691 16.780433780048078 4.792215865384613 Q 16.780433780048078 4.8757393269230755 16.751045895432693 4.950755769230767 Q 16.721658010817308 5.0257722115384595 16.668295799278845 5.0837746153846135 Q 16.614933587740385 5.1417770192307675 16.541463876201924 5.175031730769229 Q 16.467994164663462 5.20828644230769 16.379830510817307 5.20828644230769 M 16.087498395432693 4.793762596153845 Q 16.087498395432693 4.883472980769229 16.126940030048075 4.956942692307691 Q 16.16638166466346 5.030412403846152 16.232891087740384 5.072947499999998 Q 16.299400510817307 5.115482596153845 16.379830510817307 5.115482596153845 Q 16.460260510817307 5.115482596153845 16.52676993389423 5.072174134615383 Q 16.593279356971152 5.028865673076921 16.633494356971152 4.9538492307692295 Q 16.673709356971152 4.878832788461537 16.673709356971152 4.790669134615383 Q 16.673709356971152 4.700958749999998 16.633494356971152 4.626715673076921 Q 16.593279356971152 4.552472596153844 16.52676993389423 4.509164134615383 Q 16.460260510817307 4.465855673076922 16.379830510817307 4.465855673076922 Q 16.299400510817307 4.465855673076922 16.233664453124998 4.510710865384613 Q 16.167928395432693 4.555566057692306 16.127713395432693 4.629035769230768 Q 16.087498395432693 4.702505480769229 16.087498395432693 4.793762596153845 M 17.35886577336238 4.479776249999999 Q 17.253688081054687 4.48286971153846 17.1740314464393 4.538552019230767 Q 17.094374811823915 4.594234326923075 17.06189346567007 4.691678365384614 L 17.06189346567007 5.192819134615383 L 16.956715773362376 5.192819134615383 L 16.956715773362376 4.386972403846152 L 17.055706542593146 4.386972403846152 L 17.055706542593146 4.580313749999998 Q 17.097468273362377 4.495243557692306 17.166297792593145 4.442654711538459 Q 17.235127311823916 4.390065865384614 17.312463850285454 4.383878942307691 Q 17.327931157977762 4.3823322115384595 17.339531638746994 4.3823322115384595 Q 17.351132119516222 4.3823322115384595 17.35886577336238 4.383878942307691 L 17.35886577336238 4.479776249999999 M 18.706080357196512 4.9097674038461525 Q 18.706080357196512 4.991744134615383 18.66431862642728 5.0559334615384595 Q 18.62255689565805 5.120122788461536 18.55218064565805 5.15647096153846 Q 18.48180439565805 5.192819134615383 18.39828093411959 5.192819134615383 L 17.88012612642728 5.192819134615383 L 17.88012612642728 4.0946402884615365 L 18.409108049504205 4.0946402884615365 Q 18.486444587965742 4.0946402884615365 18.542900261042664 4.135628653846152 Q 18.59935593411959 4.1766170192307674 18.62951718411959 4.240806346153844 Q 18.659678434119588 4.304995673076921 18.659678434119588 4.374598557692306 Q 18.659678434119588 4.456575288461536 18.617916703350357 4.5261781730769215 Q 18.576154972581126 4.595781057692306 18.50191189565805 4.629809134615383 Q 18.596262472581127 4.657650288461537 18.651171414888818 4.733440096153845 Q 18.706080357196512 4.809229903846152 18.706080357196512 4.9097674038461525 M 18.59780920335036 4.891206634615383 Q 18.59780920335036 4.835524326923075 18.573061511042667 4.788349038461536 Q 18.548313818734975 4.741173749999998 18.505778722581127 4.711785865384614 Q 18.463243626427282 4.682397980769229 18.409108049504205 4.682397980769229 L 17.988397280273436 4.682397980769229 L 17.988397280273436 5.098468557692306 L 18.39828093411959 5.098468557692306 Q 18.453963241811895 5.098468557692306 18.49881843411959 5.069080673076922 Q 18.54367362642728 5.039692788461537 18.57074141488882 4.992517499999998 Q 18.59780920335036 4.94534221153846 18.59780920335036 4.891206634615383 M 17.988397280273436 4.188990865384614 L 17.988397280273436 4.594234326923075 L 18.365799587965743 4.594234326923075 Q 18.41993516488882 4.594234326923075 18.46169689565805 4.565619807692306 Q 18.503458626427282 4.537005288461537 18.528206318734973 4.490603365384613 Q 18.552954011042665 4.4442014423076905 18.552954011042665 4.391612596153845 Q 18.552954011042665 4.335930288461537 18.529753049504205 4.2903017307692295 Q 18.506552087965744 4.244673173076921 18.466337087965744 4.216832019230767 Q 18.426122087965744 4.188990865384614 18.375079972581126 4.188990865384614 L 17.988397280273436 4.188990865384614 M 18.88861875563401 5.192819134615383 L 18.88861875563401 4.386972403846152 L 18.993796447941705 4.386972403846152 L 18.993796447941705 5.192819134615383 L 18.88861875563401 5.192819134615383 M 18.88861875563401 4.2183787499999985 L 18.88861875563401 4.063705673076921 L 18.993796447941705 4.063705673076921 L 18.993796447941705 4.2183787499999985 L 18.88861875563401 4.2183787499999985 M 19.627983251953122 4.479776249999999 Q 19.52280555964543 4.48286971153846 19.443148925030044 4.538552019230767 Q 19.36349229041466 4.594234326923075 19.331010944260814 4.691678365384614 L 19.331010944260814 5.192819134615383 L 19.22583325195312 5.192819134615383 L 19.22583325195312 4.386972403846152 L 19.32482402118389 4.386972403846152 L 19.32482402118389 4.580313749999998 Q 19.36658575195312 4.495243557692306 19.43541527118389 4.442654711538459 Q 19.50424479041466 4.390065865384614 19.581581328876197 4.383878942307691 Q 19.597048636568505 4.3823322115384595 19.608649117337738 4.3823322115384595 Q 19.620249598106966 4.3823322115384595 19.627983251953122 4.383878942307691 L 19.627983251953122 4.479776249999999 M 20.155438835730916 5.154150865384613 Q 20.14306498957707 5.158791057692306 20.116770566500147 5.171164903846152 Q 20.090476143423224 5.1835387499999985 20.053354604961683 5.192819134615383 Q 20.016233066500146 5.202099519230767 19.972924604961683 5.202099519230767 Q 19.928069412653993 5.202099519230767 19.888627778038607 5.185085480769229 Q 19.849186143423225 5.16807144230769 19.82598518188476 5.133269999999999 Q 19.8027842203463 5.098468557692306 19.8027842203463 5.047426442307691 L 19.8027842203463 4.470495865384613 L 19.691419604961684 4.470495865384613 L 19.691419604961684 4.386972403846152 L 19.8027842203463 4.386972403846152 L 19.8027842203463 4.114747788461537 L 19.90796191265399 4.114747788461537 L 19.90796191265399 4.386972403846152 L 20.093569604961683 4.386972403846152 L 20.093569604961683 4.470495865384613 L 19.90796191265399 4.470495865384613 L 19.90796191265399 5.018038557692306 Q 19.911055374192454 5.061347019230768 19.939669893423222 5.083001249999998 Q 19.968284412653993 5.104655480769229 20.00540595111553 5.104655480769229 Q 20.048714412653993 5.104655480769229 20.0842892203463 5.089961538461536 Q 20.11986402803861 5.075267596153845 20.12759768188476 5.069080673076922 L 20.155438835730916 5.154150865384613 M 20.96441301382211 5.192819134615383 L 20.85923532151442 5.192819134615383 L 20.85923532151442 4.742720480769229 Q 20.85923532151442 4.606608173076921 20.811286667668266 4.537778653846152 Q 20.76333801382211 4.468949134615383 20.673627629206727 4.468949134615383 Q 20.614851859975957 4.468949134615383 20.556849456129804 4.499110384615383 Q 20.49884705228365 4.529271634615383 20.454765225360575 4.581087115384614 Q 20.410683398437495 4.632902596153844 20.392122629206728 4.699412019230768 L 20.392122629206728 5.192819134615383 L 20.286944936899033 5.192819134615383 L 20.286944936899033 4.063705673076921 L 20.392122629206728 4.063705673076921 L 20.392122629206728 4.569486634615383 Q 20.44007128305288 4.479776249999999 20.525914840745187 4.4264140384615365 Q 20.611758398437495 4.373051826923075 20.709202436899034 4.373051826923075 Q 20.77880532151442 4.373051826923075 20.82752734074519 4.397799519230768 Q 20.876249359975958 4.422547211538459 20.906410609975957 4.469722499999998 Q 20.936571859975956 4.516897788461537 20.950492436899033 4.579540384615383 Q 20.96441301382211 4.642182980769229 20.96441301382211 4.721066249999998 L 20.96441301382211 5.192819134615383 M 22.35030341928335 5.192819134615383 L 21.802760726975656 4.615888557692306 Q 21.736251303898733 4.54473894230769 21.696036303898733 4.49447019230769 Q 21.655821303898733 4.4442014423076905 21.638807265437194 4.403213076923075 Q 21.621793226975658 4.36222471153846 21.621793226975658 4.32200971153846 Q 21.621793226975658 4.253953557692306 21.65814140005258 4.199817980769229 Q 21.694489573129502 4.145682403846152 21.75713216928335 4.113201057692306 Q 21.819774765437195 4.08071971153846 21.897111303898733 4.08071971153846 Q 21.96980765005258 4.08071971153846 22.027810053898733 4.107787499999999 Q 22.085812457744886 4.134855288461537 22.119840534667965 4.183577307692306 Q 22.15386861159104 4.2322993269230755 22.15386861159104 4.297262019230768 Q 22.15386861159104 4.366864903846152 22.114426976975658 4.421773846153845 Q 22.07498534236027 4.476682788461536 22.012342746206425 4.523858076923075 Q 21.94970015005258 4.571033365384614 21.873910342360272 4.618982019230767 Q 21.81049438082181 4.662290480769229 21.75713216928335 4.706372307692306 Q 21.70376995774489 4.750454134615383 21.672835342360273 4.7999495192307675 Q 21.641900726975656 4.849444903846152 21.641900726975656 4.912860865384614 Q 21.641900726975656 4.980917019230768 21.680568996206425 5.028092307692306 Q 21.719237265437194 5.075267596153845 21.778786400052578 5.099241923076922 Q 21.838335534667966 5.123216249999999 21.901751496206426 5.123216249999999 Q 21.98527495774489 5.123216249999999 22.055651207744887 5.085321346153845 Q 22.126027457744886 5.047426442307691 22.178616303898732 4.980143653846152 Q 22.23120515005258 4.912860865384614 22.25981966928335 4.82624394230769 Q 22.288434188514117 4.739627019230768 22.288434188514117 4.642182980769229 L 22.378144573129504 4.642182980769229 Q 22.378144573129504 4.759734519230768 22.341023034667963 4.862592115384613 Q 22.303901496206425 4.96544971153846 22.23816543851412 5.042786249999998 Q 22.17242938082181 5.120122788461536 22.08349236159104 5.164204615384613 Q 21.99455534236027 5.20828644230769 21.89092438082181 5.20828644230769 Q 21.795027073129503 5.20828644230769 21.714597073129504 5.170391538461537 Q 21.634167073129504 5.132496634615383 21.586991784667966 5.065987211538459 Q 21.539816496206427 4.999477788461537 21.539816496206427 4.9097674038461525 Q 21.539816496206427 4.82624394230769 21.57925813082181 4.763601346153845 Q 21.618699765437196 4.700958749999998 21.681342361591042 4.650689999999998 Q 21.74398495774489 4.600421249999998 21.81358784236027 4.555566057692306 Q 21.884737457744887 4.509164134615383 21.93964640005258 4.469722499999998 Q 21.99455534236027 4.4302808653846135 22.025489957744888 4.389292499999998 Q 22.056424573129505 4.348304134615383 22.056424573129505 4.3003554807692295 Q 22.056424573129505 4.240032980769229 22.01156938082181 4.20136471153846 Q 21.966714188514118 4.16269644230769 21.897111303898733 4.16269644230769 Q 21.846069188514118 4.16269644230769 21.805854188514118 4.1843506730769215 Q 21.76563918851412 4.206004903846152 21.742438226975658 4.24157971153846 Q 21.719237265437194 4.277154519230767 21.719237265437194 4.318916249999998 Q 21.719237265437194 4.345210673076921 21.73161111159104 4.373825192307691 Q 21.74398495774489 4.4024397115384595 21.779559765437195 4.444974807692306 Q 21.8151345731295 4.487509903846152 21.881643996206424 4.557112788461537 L 22.48950918851412 5.192819134615383 L 22.35030341928335 5.192819134615383 M 23.856814657076317 4.9097674038461525 Q 23.856814657076317 4.991744134615383 23.815052926307086 5.0559334615384595 Q 23.773291195537855 5.120122788461536 23.702914945537856 5.15647096153846 Q 23.632538695537853 5.192819134615383 23.549015233999395 5.192819134615383 L 23.030860426307086 5.192819134615383 L 23.030860426307086 4.0946402884615365 L 23.55984234938401 4.0946402884615365 Q 23.637178887845547 4.0946402884615365 23.69363456092247 4.135628653846152 Q 23.750090233999394 4.1766170192307674 23.780251483999393 4.240806346153844 Q 23.810412733999392 4.304995673076921 23.810412733999392 4.374598557692306 Q 23.810412733999392 4.456575288461536 23.76865100323016 4.5261781730769215 Q 23.72688927246093 4.595781057692306 23.652646195537855 4.629809134615383 Q 23.746996772460932 4.657650288461537 23.801905714768623 4.733440096153845 Q 23.856814657076317 4.809229903846152 23.856814657076317 4.9097674038461525 M 23.748543503230163 4.891206634615383 Q 23.748543503230163 4.835524326923075 23.72379581092247 4.788349038461536 Q 23.699048118614776 4.741173749999998 23.65651302246093 4.711785865384614 Q 23.613977926307086 4.682397980769229 23.55984234938401 4.682397980769229 L 23.13913158015324 4.682397980769229 L 23.13913158015324 5.098468557692306 L 23.549015233999395 5.098468557692306 Q 23.6046975416917 5.098468557692306 23.649552733999393 5.069080673076922 Q 23.694407926307086 5.039692788461537 23.721475714768623 4.992517499999998 Q 23.748543503230163 4.94534221153846 23.748543503230163 4.891206634615383 M 23.13913158015324 4.188990865384614 L 23.13913158015324 4.594234326923075 L 23.516533887845547 4.594234326923075 Q 23.570669464768624 4.594234326923075 23.612431195537855 4.565619807692306 Q 23.654192926307086 4.537005288461537 23.678940618614778 4.490603365384613 Q 23.70368831092247 4.4442014423076905 23.70368831092247 4.391612596153845 Q 23.70368831092247 4.335930288461537 23.68048734938401 4.2903017307692295 Q 23.65728638784555 4.244673173076921 23.61707138784555 4.216832019230767 Q 23.57685638784555 4.188990865384614 23.52581427246093 4.188990865384614 L 23.13913158015324 4.188990865384614 M 24.38736747859074 5.20828644230769 Q 24.300750555513815 5.20828644230769 24.22650747859074 5.175031730769229 Q 24.15226440166766 5.1417770192307675 24.098128824744585 5.0837746153846135 Q 24.043993247821508 5.0257722115384595 24.01383199782151 4.949982403846152 Q 23.98367074782151 4.874192596153844 23.98367074782151 4.787575673076922 Q 23.98367074782151 4.674664326923075 24.035486228590738 4.580313749999998 Q 24.08730170935997 4.485963173076922 24.178558824744584 4.429507499999998 Q 24.2698159401292 4.373051826923075 24.38582074782151 4.373051826923075 Q 24.504919017052277 4.373051826923075 24.593856036283047 4.4302808653846135 Q 24.682793055513816 4.487509903846152 24.73383517089843 4.581087115384614 Q 24.784877286283045 4.674664326923075 24.784877286283045 4.7860289423076905 Q 24.784877286283045 4.798402788461537 24.784877286283045 4.8100032692307675 Q 24.784877286283045 4.821603749999999 24.783330555513814 4.827790673076922 L 24.09348863243689 4.827790673076922 Q 24.101222286283047 4.914407596153844 24.14221065166766 4.981690384615383 Q 24.183199017052278 5.048973173076921 24.248935074744583 5.088414807692306 Q 24.314671132436892 5.12785644230769 24.39200767089843 5.12785644230769 Q 24.470890940129202 5.12785644230769 24.5412671901292 5.0876414423076906 Q 24.6116434401292 5.047426442307691 24.639484593975354 4.982463749999998 L 24.730741709359968 5.007211442307691 Q 24.705994017052276 5.064440480769229 24.654951901667662 5.110842403846152 Q 24.603909786283047 5.157244326923076 24.535080267052276 5.182765384615383 Q 24.46625074782151 5.20828644230769 24.38736747859074 5.20828644230769 M 24.090395170898432 4.7520008653846135 L 24.68588651705228 4.7520008653846135 Q 24.679699593975354 4.66383721153846 24.63871122859074 4.597327788461537 Q 24.597722863206123 4.530818365384613 24.531986805513817 4.49292346153846 Q 24.46625074782151 4.455028557692306 24.38736747859074 4.455028557692306 Q 24.30848420935997 4.455028557692306 24.243521517052276 4.49292346153846 Q 24.178558824744584 4.530818365384613 24.13757045935997 4.5981011538461525 Q 24.096582093975353 4.665383942307691 24.090395170898432 4.7520008653846135 M 24.97042380418043 5.440296057692306 Q 24.99207803494966 5.441842788461536 25.012185534949662 5.442616153846152 Q 25.03229303494966 5.4433895192307675 25.041573419565047 5.440296057692306 Q 25.060134188795814 5.437202596153845 25.077148227257354 5.418641826923075 Q 25.094162265718893 5.400081057692306 25.117363227257353 5.3474922115384596 Q 25.140564188795814 5.294903365384614 25.182325919565045 5.192819134615383 L 24.83121803494966 4.386972403846152 L 24.942582650334277 4.386972403846152 L 25.238008227257353 5.084547980769229 L 25.51023284264197 4.386972403846152 L 25.61541053494966 4.386972403846152 L 25.197793227257353 5.426375480769229 Q 25.18696611187274 5.455763365384613 25.16531188110351 5.4812844230769215 Q 25.143657650334276 5.506805480769229 25.111949669565046 5.521499423076921 Q 25.080241688795816 5.536193365384614 25.03383976571889 5.537740096153844 Q 25.019919188795814 5.5392868269230755 25.005225246488124 5.53851346153846 Q 24.990531304180433 5.537740096153844 24.97042380418043 5.534646634615383 L 24.97042380418043 5.440296057692306 M 26.076352164212732 5.20828644230769 Q 25.989735241135808 5.20828644230769 25.916265529597347 5.175031730769229 Q 25.842795818058885 5.1417770192307675 25.789433606520426 5.0837746153846135 Q 25.736071394981963 5.0257722115384595 25.706683510366577 4.950755769230767 Q 25.677295625751196 4.8757393269230755 25.677295625751196 4.792215865384613 Q 25.677295625751196 4.705598942307691 25.706683510366577 4.630582499999998 Q 25.736071394981963 4.555566057692306 25.79020697190504 4.497563653846152 Q 25.844342548828116 4.439561249999999 25.917812260366578 4.4063065384615365 Q 25.99128197190504 4.373051826923075 26.077898894981963 4.373051826923075 Q 26.164515818058888 4.373051826923075 26.237212164212732 4.4063065384615365 Q 26.30990851036658 4.439561249999999 26.364044087289656 4.497563653846152 Q 26.418179664212733 4.555566057692306 26.44756754882812 4.630582499999998 Q 26.4769554334435 4.705598942307691 26.4769554334435 4.792215865384613 Q 26.4769554334435 4.8757393269230755 26.44756754882812 4.950755769230767 Q 26.418179664212733 5.0257722115384595 26.36481745267427 5.0837746153846135 Q 26.31145524113581 5.1417770192307675 26.23798552959735 5.175031730769229 Q 26.164515818058888 5.20828644230769 26.076352164212732 5.20828644230769 M 25.78402004882812 4.793762596153845 Q 25.78402004882812 4.883472980769229 25.8234616834435 4.956942692307691 Q 25.862903318058887 5.030412403846152 25.92941274113581 5.072947499999998 Q 25.995922164212732 5.115482596153845 26.076352164212732 5.115482596153845 Q 26.156782164212732 5.115482596153845 26.223291587289655 5.072174134615383 Q 26.289801010366578 5.028865673076921 26.330016010366577 4.9538492307692295 Q 26.370231010366577 4.878832788461537 26.370231010366577 4.790669134615383 Q 26.370231010366577 4.700958749999998 26.330016010366577 4.626715673076921 Q 26.289801010366578 4.552472596153844 26.223291587289655 4.509164134615383 Q 26.156782164212732 4.465855673076922 26.076352164212732 4.465855673076922 Q 25.995922164212732 4.465855673076922 25.930186106520424 4.510710865384613 Q 25.864450048828118 4.555566057692306 25.82423504882812 4.629035769230768 Q 25.78402004882812 4.702505480769229 25.78402004882812 4.793762596153845 M 27.330705503680882 5.192819134615383 L 27.22552781137319 5.192819134615383 L 27.22552781137319 4.742720480769229 Q 27.22552781137319 4.600421249999998 27.18376608060396 4.53468519230769 Q 27.14200434983473 4.468949134615383 27.052293965219345 4.468949134615383 Q 26.990424734450116 4.468949134615383 26.930102234450114 4.499110384615383 Q 26.869779734450113 4.529271634615383 26.824151176757805 4.581087115384614 Q 26.778522619065498 4.632902596153844 26.7584151190655 4.699412019230768 L 26.7584151190655 5.192819134615383 L 26.653237426757805 5.192819134615383 L 26.653237426757805 4.386972403846152 L 26.749134734450113 4.386972403846152 L 26.749134734450113 4.569486634615383 Q 26.78161608060396 4.510710865384613 26.834204926757806 4.466629038461537 Q 26.886793772911652 4.422547211538459 26.953303195988575 4.397799519230768 Q 27.019812619065497 4.373051826923075 27.090962234450114 4.373051826923075 Q 27.157471657527037 4.373051826923075 27.20387358060396 4.397799519230768 Q 27.250275503680882 4.422547211538459 27.278116657527036 4.4681757692307675 Q 27.30595781137319 4.513804326923076 27.318331657527036 4.5779936538461525 Q 27.330705503680882 4.642182980769229 27.330705503680882 4.721066249999998 L 27.330705503680882 5.192819134615383 M 27.5008579721304 4.792215865384613 Q 27.5008579721304 4.677757788461537 27.54803326059194 4.582633846153844 Q 27.595208549053478 4.487509903846152 27.67873201059194 4.4302808653846135 Q 27.762255472130402 4.373051826923075 27.868979895207325 4.373051826923075 Q 27.969517395207326 4.373051826923075 28.04917402982271 4.4264140384615365 Q 28.128830664438095 4.479776249999999 28.173685856745788 4.555566057692306 L 28.173685856745788 4.063705673076921 L 28.27886354905348 4.063705673076921 L 28.27886354905348 5.065987211538459 Q 28.27886354905348 5.0876414423076906 28.288143933668863 5.0976951923076905 Q 28.29742431828425 5.1077489423076905 28.315985087515017 5.109295673076922 L 28.315985087515017 5.192819134615383 Q 28.285050472130404 5.1974593269230756 28.268036433668865 5.195912596153844 Q 28.235555087515017 5.194365865384614 28.210807395207325 5.1696181730769215 Q 28.186059702899634 5.144870480769229 28.186059702899634 5.115482596153845 L 28.186059702899634 5.036599326923075 Q 28.138111049053478 5.115482596153845 28.056134318284247 5.161884519230767 Q 27.974157587515016 5.20828644230769 27.885993933668864 5.20828644230769 Q 27.802470472130402 5.20828644230769 27.732094222130403 5.174258365384613 Q 27.661717972130404 5.140230288461537 27.609902491361172 5.081454519230768 Q 27.55808701059194 5.022678749999998 27.529472491361172 4.947662307692306 Q 27.5008579721304 4.872645865384614 27.5008579721304 4.792215865384613 M 28.173685856745788 4.915954326923075 L 28.173685856745788 4.666930673076921 Q 28.153578356745786 4.611248365384614 28.108723164438096 4.565619807692306 Q 28.063867972130403 4.519991249999999 28.00741229905348 4.49292346153846 Q 27.950956625976556 4.465855673076922 27.895274318284248 4.465855673076922 Q 27.830311625976556 4.465855673076922 27.77772277982271 4.49292346153846 Q 27.725133933668864 4.519991249999999 27.68723902982271 4.566393173076921 Q 27.649344125976555 4.612795096153844 27.629236625976556 4.671570865384614 Q 27.609129125976555 4.730346634615383 27.609129125976555 4.792215865384613 Q 27.609129125976555 4.857178557692306 27.6315567221304 4.915954326923075 Q 27.653984318284248 4.974730096153844 27.69574604905348 5.020358653846152 Q 27.73750777982271 5.065987211538459 27.791643356745787 5.090734903846152 Q 27.845778933668864 5.115482596153845 27.909194895207325 5.115482596153845 Q 27.949409895207324 5.115482596153845 27.992718356745787 5.100015288461536 Q 28.03602681828425 5.084547980769229 28.075468452899635 5.057480192307691 Q 28.114910087515018 5.030412403846152 28.14120451059194 4.993290865384614 Q 28.167498933668863 4.956169326923075 28.173685856745788 4.915954326923075" fill="#000000" fill-rule="nonzero"></path></g></g><defs><clipPath id="SvgjsClipPath28240"><path d=" M -5.1350787634053825 -0.047972250137632955 h 4.735078763405382 v 5.288763634890649 h -4.735078763405382 Z"></path></clipPath><clipPath id="SvgjsClipPath28238ddb766e3-6376-4a31-8d28-6538581df03a"><path d=" M -5.1350787634053825 -0.047972250137632955 L -0.40000000000000036 -0.047972250137632955 L -0.40000000000000036 5.240791384753016 L -5.1350787634053825 5.240791384753016 Z"></path></clipPath></defs></svg>